<svg id="Layer_1" data-name="Layer 1" xmlns="http://www.w3.org/2000/svg" xmlns:xlink="http://www.w3.org/1999/xlink" viewBox="0 0 17 17"><defs><style>.cls-1,.cls-42{fill:none;}.cls-1{clip-rule:evenodd;}.cls-2{clip-path:url(#clip-path);}.cls-3{fill:url(#linear-gradient);}.cls-4{clip-path:url(#clip-path-2);}.cls-5{fill:url(#linear-gradient-2);}.cls-6{clip-path:url(#clip-path-3);}.cls-7{fill:url(#linear-gradient-3);}.cls-8{clip-path:url(#clip-path-4);}.cls-9{fill:url(#linear-gradient-4);}.cls-10{clip-path:url(#clip-path-5);}.cls-11{fill:url(#linear-gradient-5);}.cls-12{clip-path:url(#clip-path-6);}.cls-13{fill:url(#linear-gradient-6);}.cls-14{clip-path:url(#clip-path-7);}.cls-15{fill:url(#linear-gradient-7);}.cls-16{clip-path:url(#clip-path-8);}.cls-17{fill:url(#linear-gradient-8);}.cls-18{clip-path:url(#clip-path-9);}.cls-19{fill:url(#linear-gradient-9);}.cls-20{clip-path:url(#clip-path-10);}.cls-21{fill:url(#linear-gradient-10);}.cls-22{clip-path:url(#clip-path-11);}.cls-23{fill:url(#linear-gradient-11);}.cls-24{clip-path:url(#clip-path-12);}.cls-25{fill:url(#linear-gradient-12);}.cls-26{clip-path:url(#clip-path-13);}.cls-27{fill:url(#linear-gradient-13);}.cls-28{clip-path:url(#clip-path-14);}.cls-29{fill:url(#linear-gradient-14);}.cls-30{clip-path:url(#clip-path-15);}.cls-31{fill:url(#linear-gradient-15);}.cls-32{clip-path:url(#clip-path-16);}.cls-33{fill:url(#linear-gradient-16);}.cls-34{clip-path:url(#clip-path-17);}.cls-35{fill:url(#linear-gradient-17);}.cls-36{clip-path:url(#clip-path-18);}.cls-37{fill:url(#linear-gradient-18);}.cls-38{clip-path:url(#clip-path-19);}.cls-39{fill:url(#linear-gradient-19);}.cls-40{clip-path:url(#clip-path-20);}.cls-41{fill:url(#linear-gradient-20);}.cls-43{fill:url(#linear-gradient-21);}.cls-44{fill:url(#linear-gradient-22);}.cls-45{fill:url(#linear-gradient-23);}.cls-46{fill:url(#linear-gradient-24);}.cls-47{fill:url(#linear-gradient-25);}</style><clipPath id="clip-path" transform="translate(-1 -2)"><polygon class="cls-1" points="3 4 6 10 6 10 6 9 5 6 5 5 3 2 3 4"/></clipPath><linearGradient id="linear-gradient" x1="5.54" y1="7.3" x2="0.58" y2="-0.09" gradientUnits="userSpaceOnUse"><stop offset="0" stop-color="#28285b"/><stop offset="1" stop-color="#6fc7da"/></linearGradient><clipPath id="clip-path-2" transform="translate(-1 -2)"><polygon class="cls-1" points="6 9 3 5 1 4 6 11 6 12 6 10 6 9"/></clipPath><linearGradient id="linear-gradient-2" x1="3.53" y1="9.55" x2="1.05" y2="1.38" xlink:href="#linear-gradient"/><clipPath id="clip-path-3" transform="translate(-1 -2)"><polygon class="cls-1" points="2 6 2 8 10 18 10 18 8 14 2 6"/></clipPath><linearGradient id="linear-gradient-3" x1="5.16" y1="11.01" x2="-4.4" y2="0.92" xlink:href="#linear-gradient"/><clipPath id="clip-path-4" transform="translate(-1 -2)"><polygon class="cls-1" points="3 8 3 11 10 18 10 18 3 8"/></clipPath><linearGradient id="linear-gradient-4" x1="8.05" y1="14.27" x2="-2.85" y2="5.17" xlink:href="#linear-gradient"/><clipPath id="clip-path-5" transform="translate(-1 -2)"><polygon class="cls-1" points="6 12 10 18 10 15 5 5 5 6 6 9 6 12"/></clipPath><linearGradient id="linear-gradient-5" x1="9.19" y1="14.61" x2="1.92" y2="2.91" xlink:href="#linear-gradient"/><clipPath id="clip-path-6" transform="translate(-1 -2)"><polygon class="cls-1" points="5 6 5 6 10 15 10 15 5 5 5 6 5 7 6 9 6 10 6 10 6 10 6 10 6 11 6 12 6 12 10 18 10 18 9 16 6 12 6 12 6 9 5 6"/></clipPath><linearGradient id="linear-gradient-6" x1="7.44" y1="15.22" x2="4.89" y2="3.33" gradientUnits="userSpaceOnUse"><stop offset="0" stop-color="#195327"/><stop offset="1" stop-color="#b0cb17"/></linearGradient><clipPath id="clip-path-7" transform="translate(-1 -2)"><polygon class="cls-1" points="3 4 4 2 5 5 5 5 3 2 3 4 6 9 6 9 3 4"/></clipPath><linearGradient id="linear-gradient-7" x1="4.82" y1="8.23" x2="2.05" y2="0.11" xlink:href="#linear-gradient-6"/><clipPath id="clip-path-8" transform="translate(-1 -2)"><polygon class="cls-1" points="1 5 3 5 6 9 6 10 6 10 6 10 6 9 6 9 3 5 1 4 1 5"/></clipPath><linearGradient id="linear-gradient-8" x1="2.42" y1="8.15" x2="2.77" y2="2.25" xlink:href="#linear-gradient-6"/><clipPath id="clip-path-9" transform="translate(-1 -2)"><polygon class="cls-1" points="2 8 2 6 2 6 2 8 3 9 3 9 2 8"/></clipPath><linearGradient id="linear-gradient-9" x1="1.33" y1="7.82" x2="0.86" y2="3.85" xlink:href="#linear-gradient-6"/><clipPath id="clip-path-10" transform="translate(-1 -2)"><polygon class="cls-1" points="3 11 3 10 3 9 6 13 3 8 3 9 3 9 3 11 10 18 10 18 3 11"/></clipPath><linearGradient id="linear-gradient-10" x1="5.03" y1="16.24" x2="5.38" y2="5.95" xlink:href="#linear-gradient-6"/><clipPath id="clip-path-11" transform="translate(-1 -2)"><polygon class="cls-1" points="16 4 13 10 13 10 13 9 14 6 14 5 16 2 16 4"/></clipPath><linearGradient id="linear-gradient-11" x1="11.74" y1="7.3" x2="16.69" y2="-0.09" xlink:href="#linear-gradient"/><clipPath id="clip-path-12" transform="translate(-1 -2)"><polygon class="cls-1" points="14 9 17 5 18 4 14 11 13 12 13 10 14 9"/></clipPath><linearGradient id="linear-gradient-12" x1="13.75" y1="9.55" x2="16.23" y2="1.38" xlink:href="#linear-gradient"/><clipPath id="clip-path-13" transform="translate(-1 -2)"><polygon class="cls-1" points="18 6 18 8 10 18 10 18 12 14 18 6"/></clipPath><linearGradient id="linear-gradient-13" x1="12.12" y1="11.01" x2="21.68" y2="0.92" xlink:href="#linear-gradient"/><clipPath id="clip-path-14" transform="translate(-1 -2)"><polygon class="cls-1" points="17 8 17 11 10 18 10 18 17 8"/></clipPath><linearGradient id="linear-gradient-14" x1="9.23" y1="14.27" x2="20.13" y2="5.17" xlink:href="#linear-gradient"/><clipPath id="clip-path-15" transform="translate(-1 -2)"><polygon class="cls-1" points="13 12 10 18 10 15 14 5 14 6 13 9 13 12"/></clipPath><linearGradient id="linear-gradient-15" x1="8.09" y1="14.61" x2="15.36" y2="2.91" xlink:href="#linear-gradient"/><clipPath id="clip-path-16" transform="translate(-1 -2)"><polygon class="cls-1" points="14 6 14 6 10 15 10 15 14 5 14 6 14 7 13 9 13 10 13 10 13 10 13 10 13 11 13 12 13 12 10 18 10 18 10 16 13 12 13 12 13 9 14 6"/></clipPath><linearGradient id="linear-gradient-16" x1="9.84" y1="15.22" x2="12.39" y2="3.33" xlink:href="#linear-gradient-6"/><clipPath id="clip-path-17" transform="translate(-1 -2)"><polygon class="cls-1" points="16 4 16 2 14 5 14 5 16 2 16 4 14 9 14 9 16 4"/></clipPath><linearGradient id="linear-gradient-17" x1="12.46" y1="8.23" x2="15.23" y2="0.11" xlink:href="#linear-gradient-6"/><clipPath id="clip-path-18" transform="translate(-1 -2)"><polygon class="cls-1" points="18 5 17 5 14 9 13 10 13 10 13 10 14 9 14 9 17 5 18 4 18 5"/></clipPath><linearGradient id="linear-gradient-18" x1="14.86" y1="8.15" x2="14.51" y2="2.25" xlink:href="#linear-gradient-6"/><clipPath id="clip-path-19" transform="translate(-1 -2)"><polygon class="cls-1" points="17 8 17 6 18 6 18 8 17 9 17 9 17 8"/></clipPath><linearGradient id="linear-gradient-19" x1="15.95" y1="7.82" x2="16.42" y2="3.85" xlink:href="#linear-gradient-6"/><clipPath id="clip-path-20" transform="translate(-1 -2)"><polygon class="cls-1" points="16 11 16 10 16 9 13 13 17 8 17 9 17 9 17 11 10 18 10 18 16 11"/></clipPath><linearGradient id="linear-gradient-20" x1="12.25" y1="16.24" x2="11.9" y2="5.95" xlink:href="#linear-gradient-6"/><linearGradient id="linear-gradient-21" x1="7.37" y1="8.52" x2="13.31" y2="8.52" gradientUnits="userSpaceOnUse"><stop offset="0" stop-color="#e0dd00"/><stop offset="1"/></linearGradient><linearGradient id="linear-gradient-22" x1="7.37" y1="7.63" x2="13.31" y2="7.63" gradientUnits="userSpaceOnUse"><stop offset="0" stop-color="#6cc1b5"/><stop offset="1"/></linearGradient><linearGradient id="linear-gradient-23" x1="14.65" y1="2.98" x2="6.34" y2="7.49" gradientUnits="userSpaceOnUse"><stop offset="0" stop-color="#6cc1b5"/><stop offset="0.12" stop-color="#69bbb0"/><stop offset="0.26" stop-color="#60aca1"/><stop offset="0.43" stop-color="#519188"/><stop offset="0.6" stop-color="#3d6d66"/><stop offset="0.79" stop-color="#233e3a"/><stop offset="0.98" stop-color="#030505"/><stop offset="1"/></linearGradient><linearGradient id="linear-gradient-24" x1="7.37" y1="7.48" x2="13.31" y2="7.48" xlink:href="#linear-gradient-22"/><linearGradient id="linear-gradient-25" x1="4.81" y1="7.48" x2="16.92" y2="7.48" xlink:href="#linear-gradient-22"/></defs><g class="cls-2"><rect class="cls-3" x="2" width="3" height="8.66"/></g><g class="cls-4"><rect class="cls-5" y="3" width="5" height="7.13"/></g><g class="cls-6"><rect class="cls-7" x="1" y="4" width="8" height="12.19"/></g><g class="cls-8"><rect class="cls-9" x="2" y="7" width="7" height="9.85"/></g><g class="cls-10"><rect class="cls-11" x="4" y="3" width="5" height="12.98"/></g><g class="cls-12"><rect class="cls-13" x="4" y="3" width="5" height="12.98"/></g><g class="cls-14"><rect class="cls-15" x="2" width="3" height="7.85"/></g><g class="cls-16"><rect class="cls-17" y="3" width="5" height="5.72"/></g><g class="cls-18"><rect class="cls-19" x="1" y="4" width="1" height="3.65"/></g><g class="cls-20"><rect class="cls-21" x="2" y="7" width="7" height="9.85"/></g><g class="cls-22"><rect class="cls-23" x="12" width="3" height="8.66"/></g><g class="cls-24"><rect class="cls-25" x="12" y="3" width="5" height="7.13"/></g><g class="cls-26"><rect class="cls-27" x="9" y="4" width="8" height="12.19"/></g><g class="cls-28"><rect class="cls-29" x="9" y="7" width="7" height="9.85"/></g><g class="cls-30"><rect class="cls-31" x="9" y="3" width="5" height="12.98"/></g><g class="cls-32"><rect class="cls-33" x="9" y="3" width="5" height="12.98"/></g><g class="cls-34"><rect class="cls-35" x="13" width="3" height="7.85"/></g><g class="cls-36"><rect class="cls-37" x="12" y="3" width="5" height="5.72"/></g><g class="cls-38"><rect class="cls-39" x="16" y="4" width="1" height="3.65"/></g><g class="cls-40"><rect class="cls-41" x="9" y="7" width="7" height="9.85"/></g><path class="cls-42" d="M0,0Z" transform="translate(-1 -2)"/><path class="cls-43" d="M0,0Z" transform="translate(-1 -2)"/><path class="cls-44" d="M0,0Z" transform="translate(-1 -2)"/><path class="cls-45" d="M0,0Z" transform="translate(-1 -2)"/><path class="cls-46" d="M0,0Z" transform="translate(-1 -2)"/><path class="cls-47" d="M0,0Z" transform="translate(-1 -2)"/></svg>